<?xml version="1.0" encoding="UTF-8" standalone="no"?>
<!-- Created with Inkscape (http://www.inkscape.org/) -->

<svg
   xmlns:dc="http://purl.org/dc/elements/1.1/"
   xmlns:cc="http://creativecommons.org/ns#"
   xmlns:rdf="http://www.w3.org/1999/02/22-rdf-syntax-ns#"
   xmlns:svg="http://www.w3.org/2000/svg"
   xmlns="http://www.w3.org/2000/svg"
   xmlns:sodipodi="http://sodipodi.sourceforge.net/DTD/sodipodi-0.dtd"
   xmlns:inkscape="http://www.inkscape.org/namespaces/inkscape"
   width="297mm"
   height="115mm"
   viewBox="0 0 297 115"
   version="1.1"
   id="svg5729"
   sodipodi:docname="logo.svg"
   inkscape:version="0.92.1 r15371">
  <defs
     id="defs5723" />
  <sodipodi:namedview
     id="base"
     pagecolor="#ffffff"
     bordercolor="#666666"
     borderopacity="1.0"
     inkscape:pageopacity="0.0"
     inkscape:pageshadow="2"
     inkscape:zoom="0.98994949"
     inkscape:cx="366.69302"
     inkscape:cy="240.35909"
     inkscape:document-units="mm"
     inkscape:current-layer="layer1"
     showgrid="false"
     inkscape:window-width="1920"
     inkscape:window-height="1000"
     inkscape:window-x="-11"
     inkscape:window-y="-11"
     inkscape:window-maximized="1"
     units="mm"
     height="209mm" />
  <metadata
     id="metadata5726">
    <rdf:RDF>
      <cc:Work
         rdf:about="">
        <dc:format>image/svg+xml</dc:format>
        <dc:type
           rdf:resource="http://purl.org/dc/dcmitype/StillImage" />
        <dc:title />
      </cc:Work>
    </rdf:RDF>
  </metadata>
  <g
     inkscape:label="Layer 1"
     inkscape:groupmode="layer"
     id="layer1"
     transform="translate(0,-182)">
    <g
       id="g5742"
       transform="matrix(1.4434186,0,0,1.5057821,-1.7552603,295.83202)"
       style="fill:#f3f0f0;fill-opacity:1">
      <path
         style="fill:#f3f0f0;fill-opacity:1;stroke-width:0.22136515"
         d="m 25.141133,-4.0599416 c -2.458352,-0.32802 -6.485683,-1.41499 -8.658915,-2.33701 -5.929968,-2.51588 -10.1332309,-6.2846774 -12.3133387,-11.0405674 -1.753488,-3.82524 -0.5690833,-6.86823 2.5727488,-6.60997 1.55976,0.12822 2.199272,0.63423 4.7356859,3.74713 1.155388,1.41798 2.571057,2.96681 3.14593,3.44184 7.876972,6.508857 21.131011,6.791617 29.290156,0.62487 1.474977,-1.1148 2.014526,-1.69046 5.10598,-5.4477 1.861946,-2.26294 2.554693,-2.69203 4.165818,-2.5803 2.865979,0.19876 3.75226,2.71301 2.249021,6.38016 -2.717015,6.628137 -10.035152,11.7216074 -19.421694,13.5176174 -2.284765,0.43716 -8.558429,0.61256 -10.871392,0.30393 z m 77.764107,-7.9110504 c -2.74727,-0.46582 -5.015462,-2.688707 -5.449632,-5.340817 -0.11887,-0.72611 -0.0423,-0.82082 2.342932,-2.89983 2.60625,-2.27161 5.58184,-5.35721 5.58312,-5.78954 4.4e-4,-0.14163 -0.34653,-0.47027 -0.77099,-0.73031 -1.9455,-1.19187 -3.64998,-3.9982 -5.959242,-9.81153 -2.24036,-5.63988 -5.545019,-16.712786 -5.589502,-18.728712 -0.01772,-0.803554 0.06555,-0.933352 0.998133,-1.555648 1.618749,-1.080162 3.255729,-1.492063 5.503899,-1.3849 1.588392,0.07571 2.131212,0.201887 3.085182,0.717126 1.93394,1.044524 2.08155,1.390445 5.30106,12.42286 1.60244,5.491154 3.00072,10.003744 3.1073,10.027984 0.47236,0.1074 3.5782,-10.949705 5.09491,-18.138402 0.41049,-1.945547 0.85778,-3.67047 0.99399,-3.833161 0.94923,-1.133748 6.83665,-1.580516 8.58008,-0.651101 1.84279,0.982383 2.33456,1.927614 2.33456,4.487281 0,4.24705 -2.3321,12.305963 -6.14253,21.226463 -3.80594,8.90997 -8.44682,16.03314 -12.04442,18.48671 -1.84602,1.258987 -4.72282,1.876357 -6.96885,1.495527 z M 69.597177,-23.443739 c -4.992725,-1.07009 -8.768973,-3.47363 -11.228685,-7.14693 -2.293549,-3.42516 -3.32479,-8.27885 -2.790162,-13.132288 0.924854,-8.395953 6.424495,-13.781011 15.105308,-14.790598 3.999466,-0.465139 8.545949,0.415478 11.74473,2.274866 0.701779,0.407928 2.037225,1.492911 2.96766,2.411071 2.685351,2.649928 3.98271,5.736293 3.973072,9.451779 -0.0036,1.370954 -0.119712,2.13286 -0.427668,2.80523 -0.490472,1.07087 -1.882194,2.16093 -3.214732,2.51793 -0.500871,0.13418 -4.739298,0.8132 -9.418727,1.50892 -4.679428,0.69572 -8.579092,1.33536 -8.66592,1.42143 -0.283332,0.28086 0.699351,1.75007 1.648791,2.46512 2.965285,2.23324 8.846022,2.40769 13.87881,0.41172 1.058114,-0.41964 2.076166,-0.76299 2.262337,-0.76299 0.387898,0 1.551854,1.24503 2.041589,2.1838 0.886045,1.69843 0.594643,4.0214 -0.691266,5.51056 -0.955312,1.10631 -3.312277,2.26781 -5.63489,2.77685 -1.065582,0.23354 -3.072126,0.39765 -5.558485,0.45463 -3.314178,0.0759 -4.202348,0.0224 -5.991762,-0.3611 z m 3.379274,-21.707693 c 4.323901,-0.707746 5.058221,-0.883267 5.058221,-1.209044 0,-0.729603 -1.419568,-2.486051 -2.445733,-3.026136 -0.888064,-0.467396 -1.226693,-0.517428 -3.012577,-0.445099 -1.71154,0.06932 -2.169541,0.17298 -3.06654,0.69406 -1.264044,0.734302 -2.255823,2.02338 -2.701644,3.511499 -0.382515,1.276804 -0.275381,1.564885 0.525583,1.413286 0.321459,-0.06084 2.860668,-0.483199 5.64269,-0.938566 z m 112.424669,21.833993 c -6.64871,-1.24942 -11.5113,-5.15756 -13.56103,-10.89921 -0.87755,-2.45817 -1.17353,-4.84983 -1.02145,-8.25394 0.14898,-3.334969 0.50342,-4.836513 1.72464,-7.306193 2.06385,-4.173755 5.6197,-6.966052 10.54676,-8.282053 2.41286,-0.644467 7.47177,-0.698206 9.78294,-0.103919 5.91997,1.522243 10.17744,5.497943 11.46924,10.710176 0.43506,1.755377 0.39654,5.004759 -0.0695,5.862849 -0.51661,0.95123 -1.72497,1.95101 -2.8719,2.37617 -0.53258,0.19743 -4.90162,0.94309 -9.70899,1.65704 -4.80736,0.71394 -8.7936,1.35054 -8.85829,1.41467 -0.50569,0.50127 1.31585,2.412 3.09414,3.24565 3.3315,1.56177 8.858,1.32335 13.01096,-0.56131 1.57065,-0.71278 1.85134,-0.6957 2.71747,0.16532 1.63163,1.622 2.02185,4.00004 0.99242,6.04777 -0.83966,1.67025 -3.06907,2.99919 -6.22183,3.70881 -2.2297,0.50186 -8.82183,0.63231 -11.0256,0.21817 z m 2.17577,-21.71725 c 3.03007,-0.48842 5.59972,-0.977745 5.71033,-1.087388 0.23785,-0.235769 -0.68185,-1.874291 -1.45223,-2.587254 -0.85203,-0.788532 -2.05389,-1.167594 -3.70199,-1.167594 -2.76117,0 -4.49741,0.970349 -5.58049,3.118834 -0.58695,1.164324 -0.91118,2.611441 -0.58509,2.611441 0.0551,0 2.5794,-0.399617 5.60947,-0.888039 z m -49.97683,21.38196 c -1.85381,-0.31084 -2.95323,-1.13127 -3.692,-2.75512 -0.37406,-0.82222 -0.40369,-2.2025 -0.46181,-21.518409 -0.0542,-18.000692 -0.02,-20.681619 0.26752,-20.966583 0.47321,-0.469078 4.46582,-0.910206 6.54689,-0.723341 2.8723,0.257908 4.32506,1.242684 4.89744,3.319816 0.16755,0.608 0.24332,7.257037 0.24417,21.425678 0.001,19.342509 -0.0215,20.555929 -0.38785,20.746439 -0.53058,0.27593 -3.87096,0.70064 -5.26033,0.66882 -0.62256,-0.0143 -1.59187,-0.10304 -2.15403,-0.1973 z m 19.34353,0.0151 c -1.94137,-0.35426 -3.14327,-1.34596 -3.72749,-3.07562 -0.18195,-0.53869 -0.25334,-6.54503 -0.2541,-21.378333 -8.9e-4,-18.222313 0.0385,-20.658057 0.33762,-20.876832 0.55007,-0.402263 4.4408,-0.818347 6.2414,-0.667473 2.70808,0.226916 3.97979,0.958516 4.84713,2.788503 0.46639,0.98403 0.47057,1.151078 0.53456,21.378333 0.0355,11.212602 0.0106,20.601442 -0.0552,20.864092 -0.0922,0.3677 -0.38825,0.53533 -1.28737,0.72883 -1.55417,0.33446 -5.36098,0.47127 -6.63658,0.2385 z m -143.053836,-0.5637 c -1.067879,-0.37426 -1.981622,-1.3256 -2.369748,-2.46726 -0.220816,-0.64953 -0.300568,-5.14301 -0.354261,-19.960313 l -0.06929,-19.122087 0.521311,-0.196469 c 0.989928,-0.373078 4.88015,-0.73928 6.535318,-0.615196 2.970918,0.222725 4.477229,1.36759 4.93538,3.751107 0.120888,0.628915 0.284588,3.770624 0.36378,6.981577 0.100725,4.083975 0.222278,5.887462 0.404556,6.002394 0.410788,0.259015 11.674079,0.206166 12.170343,-0.0571 0.405401,-0.215066 0.430062,-0.50925 0.430062,-5.129971 0,-5.119599 0.257512,-8.192428 0.768041,-9.16485 0.777476,-1.48089 2.327329,-2.2348 4.901614,-2.38434 1.9635,-0.114062 5.929038,0.391655 6.453337,0.822982 0.284099,0.233718 0.327499,2.58997 0.324162,17.59898 -0.0022,9.715786 -0.09935,18.227686 -0.221212,19.374376 -0.257858,2.42632 -0.766684,3.54838 -1.935832,4.26891 -0.812884,0.50096 -0.995088,0.5181 -5.509812,0.5181 h -4.669128 l -0.118129,-8.04443 c -0.06497,-4.42443 -0.140011,-8.07076 -0.166754,-8.10295 -0.02675,-0.0322 -2.875116,-0.0322 -6.329714,0 l -6.281088,0.0585 -0.11117,7.82403 c -0.06114,4.30321 -0.192115,7.948 -0.291047,8.09952 -0.269351,0.41253 -8.178764,0.3657 -9.380717,-0.0555 z"
         id="path5752"
         inkscape:connector-curvature="0" />
    </g>
  </g>
</svg>
